<mxfile host="Electron" modified="2024-05-16T22:22:06.366Z" agent="Mozilla/5.0 (Macintosh; Intel Mac OS X 10_15_7) AppleWebKit/537.36 (KHTML, like Gecko) draw.io/24.4.0 Chrome/120.0.6099.109 Electron/28.1.0 Safari/537.36" etag="LT5b2GTpXV37_AWUuLR5" version="24.4.0" type="device">
  <diagram name="Page-1" id="le8sVs3qOIvapvSUrl2X">
    <mxGraphModel dx="1242" dy="907" grid="1" gridSize="10" guides="1" tooltips="1" connect="1" arrows="1" fold="1" page="1" pageScale="1" pageWidth="850" pageHeight="1100" math="0" shadow="0">
      <root>
        <mxCell id="0" />
        <mxCell id="1" parent="0" />
        <mxCell id="qohuXMbK6mIsNeMqqfue-1" value="" style="group;fontFamily=IBM Plex Sans;verticalAlign=top;labelPosition=center;verticalLabelPosition=bottom;align=center;spacingLeft=0;spacingRight=0;spacingBottom=4;whiteSpace=wrap;html=1;fontStyle=0;fontSize=14;strokeOpacity=0;strokeColor=none;strokeWidth=0;spacing=0;connectable=1;" vertex="1" connectable="0" parent="1">
          <mxGeometry x="38" y="67" width="372" height="393" as="geometry" />
        </mxCell>
        <mxCell id="qohuXMbK6mIsNeMqqfue-2" value="" style="editable=0;moveable=0;rounded=0;whiteSpace=wrap;html=1;spacingLeft=0;verticalAlign=top;fontFamily=IBM Plex Sans;fontSize=14;align=center;spacingBottom=0;spacingRight=0;labelPosition=center;verticalLabelPosition=bottom;spacing=0;strokeColor=#999999;connectable=0;allowArrows=0;" vertex="1" parent="qohuXMbK6mIsNeMqqfue-1">
          <mxGeometry width="372" height="393" as="geometry" />
        </mxCell>
        <mxCell id="qohuXMbK6mIsNeMqqfue-3" value="" style="editable=0;moveable=0;rounded=0;shape=image;verticalLabelPosition=bottom;labelBackgroundColor=default;verticalAlign=top;aspect=fixed;imageAspect=0;image=data:image/png,iVBORw0KGgoAAAANSUhEUgAAANEAAADRCAYAAABSOlfvAAANzElEQVR4Ae3Bb6hc6UHH8e8+52gKcjfbgWxXEZIX0qHIXa9/+9jquTctqDjFDd1QkEKTVxa7gcm7uxafNtsj9gaEdvTW4ps2K/qiNNUsVd+1maRWHhnqpLl0YBgGZgcGZKNjMjtM15rNWJst67ZJ7sycmTlnzvw+n8fG4zEiMjuDiCQSIivDed4L/BL3vRd4grf6R94QW/4CWYoQySTn2Qc+ADwF/ARgONxv8wbn+XPuuwv0gG8BF2LLATJXIZIJzrMJ7APvBo4wPyFwHDgOfNB57gHfAT4VWy4jiYVIqpxnH/gIsMFyGGAT+LLz3AP+GTgXWw6QmYRIKpznGhCRLgNEwE3nuQV8LLZcRqYSIkvlPNeAiOw5BnzZeW4B748tB8hEQmQpnGcf+CgQkm3HgJvOcxBbnkYOFSIL5TybwNeAY6yWTed5Hfh4bLmIPJRBFsZ5doGbwDFWkwH2nOcm8lAGWQjnuQbskQ+bzvOa82wiP8Ygc+c8AyAiX44AN5xnF3mLEJkb59kEasAR8skAe85DbLmI/IBB5sJ5NoEbwBHyb895dpEfMEhizrMJ3AAM62PPeXYRDDIP/wYY1s+e8+yy5gySiPMMgJD1tec8m6wxg8zMeW4CG8gN59lkTRlkJs6zC2wi/8cA32RNGWRqzrMJ7CH/34bzfIU1ZJBZfA15kA86zyZrxiBTcZ594BjyMDXWjEGm9RzyKEecZ581YpCJOc81ZBJ/yBoxyEScZxOIkEkY57nGmjDIpP4WmUbEmjDIpDaRqTjPV1gDBjmU81xDZvF7rAGDTOI9yCxC5zlNzhnkkZznNBAis/pLcs4gh/kEksQxcs4gh/l5JBHn2SXHDPJQzrMJGCSpD5NjBnmUC8g8vIscM8ij/CYyDyE5ZpBHeTsyF86zS06FrBHn2Qc2gePc9xQQ8KbvAn3u+wcgRObld4GL5FBITjnPJrAP/CLwU4DhcBvABvc9h8zTcXIqJEecZxPYB94NHEGy5ClyKiQHnOc08AVgA8mqI85zLbZskzMhK8x5TgNfADaQVRA5zxi4Hlu2yYmQFeQ8m8BXgePIKoqc53Xg87HlHCsuZMU4zz7wHLLqDPCc83wIeH9sOWBFGVaI87wCPIfkyTHgpvPssqIMK8B5Np3ndeAYkld7znONFWTIOOfZBW4CBsm7yHkGrBhDhjnPLrCHrJMN5xmwQgwZ5Ty7wB6yjjacZ8CKMGSQ8+wCe8g623CeASvAkDHOcxrYQwQ2nOcVMs6QIc6zCXwJkTcdc55rZJghW74JGETeKnKeXTLKkBHO8xVgA5EH+1MyypABzrMJfBCRhzPO0yGDDNnwTUQOd9x5TpMxhpQ5zy6wgchk/oaMMaTvTxCZ3BHn2SdDDClynn0gRGQ6HyVDDOn6CCLTC53nNBlhSInznAY2EJnNF8gIQ3r+DJHZbTjPJhlgSM9xRJLZJwMMKXCeXUSSezcZYEjHhxFJ7ggZYEjHuxCZA+fZJ2WGdISIzMcHSJlhyZznDxCZn6dImWH5fhmR+TlCygzL96uI5Ihh+d6ByBw5z9OkyLB8jyMyX+8iRQYRScQgIokYRCQRg4gkYhCRRAwikohh+b6HSI4Ylu9lROYotnyJFBmW7w4iOWJYvuuIzM9dUmZYstjySUTmp0fKDOm4h8h8fIuUGdLxn4jMxwVSZkjHNxBJ7l5sOSBlhhTElmcRSe47ZIAhPa8iksynyABDev4akdndjS2XyQBDSmLLOURm9y9khCFd1xGZQWzZJiMMKYot24hM7zoZYkjfdUSmEFu2yRBDymLLNnAPkcn8HRljyIbPI3K4u7HlWTLGkAGx5RxwC5FH+30yyJAd7wfuIfJg12PLZTLIkBGx5QD4OCI/7tXYsk1GGTIktlwEriPypnvAe8kwQ8bElm3gAJH7tmLLARlmyKDY8jTwKrLuno8tB2ScIaNiy+PAq8i6ej62XGQFGDIstjwOvIysk3vA87HlIivCkHGx5QRwHVkH94Ct2HKRFWJYAbFlG3geybNbsSWILQesGMOKiC0XgaeBV5G8+VxseZIVZVghseUgtjwOfA7Jg1vA07HlHCssZAXFlnPAOefpAMeRVXMX+OPYcpEcCFlhseWE82wCXwWOI1l3F/ir2HKOHAlZcbHlADjB9znPNeA9QIhkyS3gY7HlMjkUkiOxZZvvc57TwCeAdwJHkDTcAr4RW54l50JyKLZcBi7zBufZBT4MPAW8nftCZB7uAq8D/w58C7gQWw5YIyFrILZcBC6yQpzn74FTTOZkbKkiqTCISCIGEUnEICKJGEQkEYOIJGIQkURCEnjfH10dIwvxc1tF3nH8Z5jEv/7TN66+76W7yNyc/PqnT1aZkEEy6d69e0zq7v/cRdJjEJFEDCKSiEFEEjGISCIGEUnEIAtjSxG2FJFVthRhSxGSjEEWwpYigjAgCANsKSJrbCkiCAOCMMCWImR2Bpk7W4oIwoAfCsIAW4rICluKCMKAHwrCAFuKkNkYZK5sKSIIA35UEAbYUkTabCkiCAN+VBAG2FKETM8gc2NLEUEY8DBBGGBLEWmxpYggDHiYIAywpQiZjkHmwpYigjDgMEEYYEsRy2ZLEUEYcJggDLClCJmcQRKzpYggDJhUEAbYUsSy2FJEEAZMKggDbClCJmOQRH7td36DIAyYVhAG2FLEotlSRBAGTCsIA37lt34dOZxBEum1u8wqCANsKWJRbCkiCANmMoaGP0AOZ5BEeq0unUabWQVhgC1FzJstRQRhwEzGUK/WGA2GyOEMkliv1aXTaDOrIAywpYh5saWIIAyYyRjq1RqjwRCZjEHmotfq0mm0mVUQBthSRFK2FBGEATMZQ71aYzQYIpMzyNz0Wl06jTazCsIAW4qYlS1FBGHATMZQr9YYDYbIdAwyV71Wl06jzayCMMCWIqZlSxFBGDCTMdSrNUaDITI9g8xdr9Wl02gzqyAM+OkTP8ukbCkiCANmMoZ6tcZoMERmY5CF6LW6dBptZvYYEwvCgJmMoV6tMRoMkdkZZGF6rS6dRptMGkO9WmM0GCLJGGSheq0unUabTBlDvVpjNBgiyRlk4XqtLp1Gm0wYQ71aYzQYIvNhkKXotbp0Gm1SNYZ6tcZoMETmxyBL02t16TTapGIM9WqN0WCIzJdBlqrX6tJptFmqMdSrNUaDITJ/Blm6XqtLp9FmKcZQr9YYDYbIYhgkFb1Wl06jzUKNoV6tMRoMkcUxSGp6rS6dRpuFGEO9WmM0GCKLZZBU9VpdOo02czWGerXGaDBEFs8gqeu1unQabeZiDPVqjdFgiCyHQTKh1+rSabRJZAz1ao3RYIgsj0Eyo9fq0mm0mckY6tUao8EQWS6DZEqv1aXTaDOVMdSrNUaDIbJ8BsmcXqtLp9FmImOoV2uMBkMkHQbJpF6rS6fR5pHGUK/WGA2GSHoMklm9VpdOo80DjaFerTEaDJF0GSTTeq0unUabtxhDvVpjNBgi6TNI5vVaXTqNNj8whnq1xmgwRLIhRFZCr9Xlv0ffZfTqdxkNhkh2hMjK+I/eLSR7DCKSiEFEEjGISCIGEUnEICKJGEQkEYOIJGIQkUQMIpKIQUQSMYhIIiEJfP3TJx9jQZxnzGReiC0XyBnnGTOZF2LLBXLAeXaAq0zmZGypkgEGEUnEICKJGEQkEYOIJGIQkURCZlTuN58AtliQxykyidff9tqJcv/lHRagUihWeYhyv7nDAj1OkUm8/rbXTpT7L+8wfzcqheJtHqLcb+4wZ2974smtn7z9dibxvSf+a6vcf4UFulEpFG8zgZDZbQFXWZDBO5tM6AxwhsV4jIe7ygIN3tlkQmeAM8zfSaDKw11lzl578hVee/IVJvQZFuskUGUCBhFJxCAiiRhEJBGDiCRiEJFEQpbjDnAFqAIdYAvYAZ5hPbwIVIEOcALYAU4BR8m/O8AVoAp0gBPADnCGnAhZvJeAs5VC8TZvqgKfLfebJ4ArwC+QT98GTlUKxQ5vdancbz4BXAKeIb9eAs5XCsUOb3Wp3G9eAC4B26w4w2K9WCkUT1UKxds8QKVQ7AA7wLfJn28DO5VCscMDVArF25VC8RTwIvn0YqVQPFUpFDs8QKVQ7FQKxR3gJVacYXFerhSKZzlEpVC8DZwiX+4ApyqF4m0OUSkUzwIvky93gPNM5ixwhxVmWJwLTKhSKHaAF8mPK5VCscPkLpAvFyqF4m0mUCkUbwOXWGGGxbnCdK6QH5eYTpV8qTKdK6www4JUCsXbTOc2a6pSKHbIkUqheIMpVArFKivMIDJn5X7zCaZQ7jdPsMIMC1LuN7eYzhb5scUUyv3mDvmyw3R2WGGGxTnPdM6TH+eZzlny5TzTOcsKMyzOmXK/ucMEyv3meeA4+XG83G+eZwLlfnMHOEO+bJf7zVNMoNxvngW2WWGGxbpS7je3eIRyv3kW+Az585lyv3mWRyj3m1vAFfLpUrnf3OERyv3mWeCLrLiQxToK1Mv95gvApUqh2OEN5X5zC7gAPEN+fbHcb54CLlQKxRu8odxvngAuAGfIr6PA1XK/+SLw2UqheIM3lPvNLeA8cIYcCFmOTwKfLPebd4AbwDbr4xngmXK/yfddA7aAo6yPM8CZcr95B7gBbAFHyZGQ5ToKbLO+tllfR4FtcsggIokYRCQRg4gkYhCRREJm1wFeYH29QL51eLQXyLcOE3psPB4jIrMziEgi/wtpQtHJVzXDeQAAAABJRU5ErkJggg==;imageBorder=none;perimeterSpacing=0;imageBackground=none;sketch=0;connectable=0;allowArrows=0;" vertex="1" parent="qohuXMbK6mIsNeMqqfue-1">
          <mxGeometry x="93" y="98.25" width="176" height="176" as="geometry" />
        </mxCell>
        <mxCell id="qohuXMbK6mIsNeMqqfue-12" value="&lt;font size=&quot;1&quot; style=&quot;&quot;&gt;&lt;b style=&quot;font-size: 22px;&quot;&gt;vFSA&lt;/b&gt;&lt;/font&gt;" style="text;strokeColor=none;align=center;fillColor=none;html=1;verticalAlign=middle;whiteSpace=wrap;rounded=0;" vertex="1" parent="qohuXMbK6mIsNeMqqfue-1">
          <mxGeometry x="151" y="278.51704545454544" width="60" height="33.49431818181818" as="geometry" />
        </mxCell>
        <mxCell id="qohuXMbK6mIsNeMqqfue-14" value="&lt;font style=&quot;font-size: 18px;&quot;&gt;VLAN_1&lt;/font&gt;" style="text;strokeColor=none;align=center;fillColor=none;html=1;verticalAlign=middle;whiteSpace=wrap;rounded=0;" vertex="1" parent="qohuXMbK6mIsNeMqqfue-1">
          <mxGeometry x="156" y="363" width="60" height="30" as="geometry" />
        </mxCell>
        <mxCell id="qohuXMbK6mIsNeMqqfue-16" value="&lt;font style=&quot;font-size: 18px;&quot;&gt;agg1&lt;/font&gt;" style="text;strokeColor=none;align=center;fillColor=none;html=1;verticalAlign=middle;whiteSpace=wrap;rounded=0;" vertex="1" parent="qohuXMbK6mIsNeMqqfue-1">
          <mxGeometry x="317" y="181.5" width="60" height="30" as="geometry" />
        </mxCell>
        <mxCell id="qohuXMbK6mIsNeMqqfue-4" value="" style="image;aspect=fixed;perimeter=ellipsePerimeter;html=1;align=center;shadow=0;dashed=0;spacingTop=3;image=img/lib/active_directory/internet_cloud.svg;" vertex="1" parent="1">
          <mxGeometry x="510" y="159.25" width="330.95" height="208.5" as="geometry" />
        </mxCell>
        <mxCell id="qohuXMbK6mIsNeMqqfue-5" value="" style="rounded=1;arcSize=10;dashed=1;strokeColor=#F59D56;fillColor=none;gradientColor=none;dashPattern=8 4;strokeWidth=2;" vertex="1" parent="1">
          <mxGeometry x="83.75" y="555.75" width="280.5" height="260.5" as="geometry" />
        </mxCell>
        <mxCell id="qohuXMbK6mIsNeMqqfue-9" value="" style="group;fontFamily=IBM Plex Sans;verticalAlign=top;labelPosition=center;verticalLabelPosition=bottom;align=center;spacingLeft=0;spacingRight=0;spacingBottom=4;whiteSpace=wrap;html=1;fontStyle=0;fontSize=14;strokeOpacity=0;strokeColor=none;strokeWidth=0;spacing=0;connectable=1;" vertex="1" connectable="0" parent="1">
          <mxGeometry x="166" y="630" width="112" height="114" as="geometry" />
        </mxCell>
        <mxCell id="qohuXMbK6mIsNeMqqfue-10" value="" style="editable=0;moveable=0;rounded=0;whiteSpace=wrap;html=1;spacingLeft=0;verticalAlign=top;fontFamily=IBM Plex Sans;fontSize=14;align=center;spacingBottom=0;spacingRight=0;labelPosition=center;verticalLabelPosition=bottom;spacing=0;strokeColor=#999999;connectable=0;allowArrows=0;" vertex="1" parent="qohuXMbK6mIsNeMqqfue-9">
          <mxGeometry width="112" height="112" as="geometry" />
        </mxCell>
        <mxCell id="qohuXMbK6mIsNeMqqfue-11" value="" style="editable=0;moveable=0;rounded=0;shape=image;verticalLabelPosition=bottom;labelBackgroundColor=default;verticalAlign=top;aspect=fixed;imageAspect=0;image=data:image/svg+xml,PHN2ZyBpZD0iQnVpbGRfaWNvbl9oZXJlIiBkYXRhLW5hbWU9IkJ1aWxkIGljb24gaGVyZSIgeG1sbnM9Imh0dHA6Ly93d3cudzMub3JnLzIwMDAvc3ZnIiB4bWxuczp4bGluaz0iaHR0cDovL3d3dy53My5vcmcvMTk5OS94bGluayIgdmlld0JveD0iMCAwIDMyIDMyIj4KICA8ZGVmcz4KICAgIDxsaW5lYXJHcmFkaWVudCBpZD0ibGluZWFyLWdyYWRpZW50IiB4MT0iMTYiIHkxPSIxNCIgeDI9IjE2IiB5Mj0iNiIgZ3JhZGllbnRVbml0cz0idXNlclNwYWNlT25Vc2UiPgogICAgICA8c3RvcCBvZmZzZXQ9IjAuMSIgc3RvcC1vcGFjaXR5PSIwIi8+CiAgICAgIDxzdG9wIG9mZnNldD0iMC43NSIvPgogICAgPC9saW5lYXJHcmFkaWVudD4KICAgIDxtYXNrIGlkPSJtYXNrIiB4PSIwIiB5PSIwIiB3aWR0aD0iMzIiIGhlaWdodD0iMzIiIG1hc2tVbml0cz0idXNlclNwYWNlT25Vc2UiPgogICAgICA8Zz4KICAgICAgICA8cGF0aCBkPSJNMjYsN3Y4SDE3VjdIMTV2OEg2VjdINHY4YTIsMiwwLDAsMCwyLDJoOXYzaDJWMTdoOWEyLDIsMCwwLDAsMi0yVjdaIiBzdHlsZT0iZmlsbDogI2ZmZiIvPgogICAgICAgIDxyZWN0IHg9IjMiIHk9IjYiIHdpZHRoPSIyNiIgaGVpZ2h0PSI4IiBzdHlsZT0iZmlsbDogdXJsKCNsaW5lYXItZ3JhZGllbnQpIi8+CiAgICAgIDwvZz4KICAgIDwvbWFzaz4KICAgIDxsaW5lYXJHcmFkaWVudCBpZD0ibGluZWFyLWdyYWRpZW50LTIiIHgxPSItNTg5NyIgeTE9Ii0yMDUzIiB4Mj0iLTU4NjUiIHkyPSItMjA4NSIgZ3JhZGllbnRUcmFuc2Zvcm09Im1hdHJpeCgxLCAwLCAwLCAtMSwgNTg5NywgLTIwNTMpIiBncmFkaWVudFVuaXRzPSJ1c2VyU3BhY2VPblVzZSI+CiAgICAgIDxzdG9wIG9mZnNldD0iMC4xIiBzdG9wLWNvbG9yPSIjMDhiZGJhIi8+CiAgICAgIDxzdG9wIG9mZnNldD0iMC45IiBzdG9wLWNvbG9yPSIjMGY2MmZlIi8+CiAgICA8L2xpbmVhckdyYWRpZW50PgogIDwvZGVmcz4KICA8Zz4KICAgIDxnIHN0eWxlPSJtYXNrOiB1cmwoI21hc2spIj4KICAgICAgPHJlY3QgaWQ9ImhleGFnb24iIHdpZHRoPSIzMiIgaGVpZ2h0PSIzMiIgdHJhbnNmb3JtPSJ0cmFuc2xhdGUoMCAzMikgcm90YXRlKC05MCkiIHN0eWxlPSJmaWxsOiB1cmwoI2xpbmVhci1ncmFkaWVudC0yKSIvPgogICAgPC9nPgogICAgPHBhdGggZD0iTTE2LDMwYTQsNCwwLDEsMSw0LTRBNCw0LDAsMCwxLDE2LDMwWm0wLTZhMiwyLDAsMSwwLDIsMkEyLDIsMCwwLDAsMTYsMjRaIiBzdHlsZT0iZmlsbDogIzAwMWQ2YyIvPgogICAgPHBhdGggZD0iTTUsOEEzLDMsMCwxLDEsOCw1LDMsMywwLDAsMSw1LDhaTTUsNEExLDEsMCwxLDAsNiw1LDEsMSwwLDAsMCw1LDRaIiBzdHlsZT0iZmlsbDogIzAwMWQ2YyIvPgogICAgPHBhdGggZD0iTTI3LDhhMywzLDAsMSwxLDMtM0EzLDMsMCwwLDEsMjcsOFptMC00YTEsMSwwLDEsMCwxLDFBMSwxLDAsMCwwLDI3LDRaIiBzdHlsZT0iZmlsbDogIzAwMWQ2YyIvPgogICAgPGNpcmNsZSBjeD0iMTYiIGN5PSI1IiByPSIyIiBzdHlsZT0iZmlsbDogIzAwMWQ2YyIvPgogIDwvZz4KPC9zdmc+Cg==;imageBorder=none;perimeterSpacing=0;imageBackground=none;sketch=0;connectable=0;allowArrows=0;" vertex="1" parent="qohuXMbK6mIsNeMqqfue-9">
          <mxGeometry x="28" y="28" width="56" height="56" as="geometry" />
        </mxCell>
        <mxCell id="qohuXMbK6mIsNeMqqfue-19" value="Server 1" style="text;strokeColor=none;align=center;fillColor=none;html=1;verticalAlign=middle;whiteSpace=wrap;rounded=0;" vertex="1" parent="qohuXMbK6mIsNeMqqfue-9">
          <mxGeometry x="26" y="-2" width="60" height="30" as="geometry" />
        </mxCell>
        <mxCell id="qohuXMbK6mIsNeMqqfue-20" value="10.10.4.10" style="text;strokeColor=none;align=center;fillColor=none;html=1;verticalAlign=middle;whiteSpace=wrap;rounded=0;" vertex="1" parent="qohuXMbK6mIsNeMqqfue-9">
          <mxGeometry x="26" y="82" width="60" height="30" as="geometry" />
        </mxCell>
        <mxCell id="qohuXMbK6mIsNeMqqfue-13" value="" style="edgeStyle=none;orthogonalLoop=1;jettySize=auto;html=1;rounded=0;exitX=0.5;exitY=0;exitDx=0;exitDy=0;entryX=0.5;entryY=1;entryDx=0;entryDy=0;fillColor=#ffe6cc;strokeColor=#d79b00;" edge="1" parent="1" source="qohuXMbK6mIsNeMqqfue-5" target="qohuXMbK6mIsNeMqqfue-1">
          <mxGeometry width="80" relative="1" as="geometry">
            <mxPoint x="400" y="460" as="sourcePoint" />
            <mxPoint x="480" y="460" as="targetPoint" />
            <Array as="points" />
          </mxGeometry>
        </mxCell>
        <mxCell id="qohuXMbK6mIsNeMqqfue-15" value="" style="edgeStyle=none;orthogonalLoop=1;jettySize=auto;html=1;rounded=0;exitX=1;exitY=0.5;exitDx=0;exitDy=0;entryX=-0.018;entryY=0.502;entryDx=0;entryDy=0;entryPerimeter=0;fillColor=#dae8fc;strokeColor=#6c8ebf;" edge="1" parent="1" source="qohuXMbK6mIsNeMqqfue-1" target="qohuXMbK6mIsNeMqqfue-4">
          <mxGeometry width="80" relative="1" as="geometry">
            <mxPoint x="420" y="270" as="sourcePoint" />
            <mxPoint x="480" y="460" as="targetPoint" />
            <Array as="points" />
          </mxGeometry>
        </mxCell>
        <mxCell id="qohuXMbK6mIsNeMqqfue-17" value="&lt;font style=&quot;font-size: 22px;&quot;&gt;&lt;b&gt;Customer zone 1&lt;/b&gt;&lt;/font&gt;" style="text;strokeColor=none;align=center;fillColor=none;html=1;verticalAlign=middle;whiteSpace=wrap;rounded=0;" vertex="1" parent="1">
          <mxGeometry x="88" y="570" width="190" height="30" as="geometry" />
        </mxCell>
        <mxCell id="qohuXMbK6mIsNeMqqfue-18" value="&lt;span style=&quot;font-size: 20px;&quot;&gt;Private&lt;br&gt;VLAN 1&lt;/span&gt;" style="text;strokeColor=none;align=center;fillColor=none;html=1;verticalAlign=middle;whiteSpace=wrap;rounded=0;" vertex="1" parent="1">
          <mxGeometry x="162" y="736" width="120" height="70" as="geometry" />
        </mxCell>
        <mxCell id="qohuXMbK6mIsNeMqqfue-21" value="169.5.12.34" style="text;strokeColor=none;align=center;fillColor=none;html=1;verticalAlign=middle;whiteSpace=wrap;rounded=0;" vertex="1" parent="1">
          <mxGeometry x="353" y="240" width="200" height="30" as="geometry" />
        </mxCell>
        <mxCell id="qohuXMbK6mIsNeMqqfue-22" value="&lt;font style=&quot;font-size: 22px;&quot;&gt;&lt;b&gt;Internet/&lt;br&gt;&lt;/b&gt;&lt;/font&gt;&lt;div style=&quot;font-size: 22px;&quot;&gt;&lt;font style=&quot;font-size: 22px;&quot;&gt;&lt;b&gt;SL Public&lt;/b&gt;&lt;/font&gt;&lt;/div&gt;" style="text;strokeColor=none;align=center;fillColor=none;html=1;verticalAlign=middle;whiteSpace=wrap;rounded=0;" vertex="1" parent="1">
          <mxGeometry x="590" y="233.5" width="150" height="60" as="geometry" />
        </mxCell>
      </root>
    </mxGraphModel>
  </diagram>
</mxfile>
